<svg width="72" height="72" viewBox="0 0 72 72" xmlns="http://www.w3.org/2000/svg">
  <defs>
    <linearGradient id="sand" x1="0" y1="0" x2="0" y2="1">
      <stop offset="0" stop-color="#9f7c55"/>
      <stop offset="1" stop-color="#7d5d3e"/>
    </linearGradient>
    <linearGradient id="stair" x1="0" y1="0" x2="1" y2="1">
      <stop offset="0" stop-color="#d9c5a7"/>
      <stop offset="1" stop-color="#c6af8c"/>
    </linearGradient>
  </defs>

  <rect width="72" height="72" fill="url(#sand)"/>

  <rect x="0" y="0" width="72" height="6" fill="#b18d66" opacity="0.5"/>
  <rect x="0" y="66" width="72" height="6" fill="#5d432d" opacity="0.45"/>

  <rect x="5" y="5" width="16" height="62" fill="#8d6946" opacity="0.7"/>

  <polygon points="16,12 30,6 30,62 16,68" fill="url(#stair)"/>
  <polygon points="28,18 42,12 42,58 28,64" fill="url(#stair)"/>
  <polygon points="40,24 54,18 54,54 40,60" fill="url(#stair)"/>
  <polygon points="52,30 66,24 66,50 52,56" fill="url(#stair)"/>

  <line x1="30" y1="6" x2="30" y2="62" stroke="#a18a69" stroke-width="1"/>
  <line x1="42" y1="12" x2="42" y2="58" stroke="#a18a69" stroke-width="1"/>
  <line x1="54" y1="18" x2="54" y2="54" stroke="#a18a69" stroke-width="1"/>
  <line x1="66" y1="24" x2="66" y2="50" stroke="#a18a69" stroke-width="1"/>

  <rect x="0.5" y="0.5" width="71" height="71" fill="none" stroke="#6b4f35"/>
</svg>
